<svg id="e7latdQP5km1" xmlns="http://www.w3.org/2000/svg" xmlns:xlink="http://www.w3.org/1999/xlink" viewBox="0 0 140 70" shape-rendering="geometricPrecision" text-rendering="geometricPrecision"><rect width="135" height="65" rx="0" ry="0" transform="translate(2.5 2.5)" fill="none" stroke="#000" stroke-width="5"/><path d="M14.7383,13.3438h5.4785L34.1914,48.1191L48.1367,13.3438h5.5078L36.3008,56h-4.2774L14.7383,13.3438Zm-1.7871,0h4.834l.791,26.0156v16.6406h-5.625v-42.6562Zm37.6172,0h4.8339v42.6562h-5.625v-16.6406l.7911-26.0156Zm20.4199,0v42.6562h-5.6543v-42.6562h5.6543Zm25.7519,0L79.0156,33.2363L69.0547,43.5781l-.9375-6.0351l7.5-8.2618L89.9434,13.3438h6.7968ZM91.291,56L75.5,35.1992l3.3691-4.4824L98.0293,56h-6.7383Z"/><rect width="27" height="5" rx="0" ry="0" transform="translate(102 56)"/></svg>
